<?xml version='1.0' encoding='utf-8'?>
<!DOCTYPE svg PUBLIC '-//W3C//DTD SVG 1.1//EN' 'http://www.w3.org/Graphics/SVG/1.1/DTD/svg11.dtd'>
<svg version="1.1" xmlns="http://www.w3.org/2000/svg" viewBox="0 0 512 512" xmlns:xlink="http://www.w3.org/1999/xlink" enable-background="new 0 0 512 512">
  <g>
    <g>
      <g>
        <path d="m480.8,28.1h-449.6c-11.1,0-20.2,9.1-20.2,20.3 0,21.3 22.6,20.4 22.6,20.4l47.2,219.8c2,9.4 10.2,16.1 19.7,16.1h310.9c9.5,0 17.7-6.7 19.7-16.1l47.2-219.8c0,0 22.5,1.1 22.5-20.4 0.2-11.2-8.8-20.3-20-20.3zm-85.6,235.8h-278.3l-42-195.1h362.2l-41.9,195.1z"/>
        <g>
          <g>
            <path d="m162.2,498.1c-41.1,0-74.5-33.7-74.5-75.1s33.4-75.1 74.5-75.1c41.1,0 74.5,33.7 74.5,75.1s-33.4,75.1-74.5,75.1zm0-109.5c-18.8,0-34.1,15.4-34.1,34.4 0,18.9 15.3,34.4 34.1,34.4 18.8,0 34.1-15.4 34.1-34.4 2.84217e-14-18.9-15.3-34.4-34.1-34.4z"/>
          </g>
          <g>
            <path d="m354.5,498.1c-41.1,0-74.5-33.7-74.5-75.1s33.4-75.1 74.5-75.1 74.5,33.7 74.5,75.1-33.5,75.1-74.5,75.1zm0-109.5c-18.8,0-34.1,15.4-34.1,34.4 0,18.9 15.3,34.4 34.1,34.4 18.8,0 34.1-15.4 34.1-34.4 0-18.9-15.3-34.4-34.1-34.4z"/>
          </g>
        </g>
      </g>
    </g>
  </g>
</svg>
